<svg width="16" height="16" viewBox="0 0 16 16" fill="none" xmlns="http://www.w3.org/2000/svg">
<g clip-path="url(#clip0_503_446)">
<path d="M0.539102 6.71942C0.637295 6.41568 0.906695 6.19995 1.22542 6.17123L5.55483 5.77811L7.2668 1.77109C7.39303 1.47743 7.68051 1.28734 7.99992 1.28734C8.31934 1.28734 8.60682 1.47743 8.73305 1.77178L10.445 5.77811L14.7751 6.17123C15.0933 6.20064 15.362 6.41568 15.4607 6.71942C15.5595 7.02315 15.4683 7.3563 15.2276 7.5663L11.9551 10.4363L12.9201 14.6871C12.9907 14.9997 12.8694 15.3227 12.6101 15.5102C12.4707 15.6109 12.3076 15.6622 12.1431 15.6622C12.0013 15.6622 11.8607 15.6239 11.7345 15.5484L7.99992 13.3164L4.26677 15.5484C3.99359 15.7128 3.64923 15.6978 3.39047 15.5102C3.13103 15.3222 3.00983 14.999 3.08044 14.6871L4.04543 10.4363L0.77291 7.56687C0.532235 7.3563 0.440336 7.02372 0.539102 6.71942Z" fill="#CAC9C9"/>
</g>
<defs>
<clipPath id="clip0_503_446">
<rect width="15" height="15" fill="white" transform="matrix(-1 0 0 1 15.5 0.965515)"/>
</clipPath>
</defs>
</svg>
