<svg width="52" height="46" viewBox="0 0 52 46" fill="none" xmlns="http://www.w3.org/2000/svg">
<path d="M51.971 13.9338L51.9553 13.8131C51.9265 13.6621 51.8747 13.5163 51.8017 13.3806L44.139 1.19481C44.139 1.19481 43.1618 0 42.9296 0H10.2761L0.455926 12.9672L0.339824 13.0867L0.324102 13.1429C0.241146 13.2745 0.173015 13.4147 0.120925 13.561L0.0810155 13.6769C-0.032133 14.0479 -0.0266424 14.4443 0.0967376 14.812L0.142694 14.9422C0.204373 15.0964 0.280564 15.2373 0.370059 15.3628L24.1115 45.074L24.1599 45.1421C24.2821 45.2975 24.4308 45.4349 24.6122 45.5603L24.7501 45.6451C24.8855 45.7288 25.027 45.7957 25.2326 45.8698L25.3669 45.914C25.5991 45.9725 25.801 46 25.9982 46C26.1977 46 26.3924 45.9737 26.6549 45.9068L26.8157 45.8506C26.9729 45.7957 27.1144 45.7276 27.285 45.6236L27.3914 45.5579C27.574 45.4301 27.7203 45.2915 27.8014 45.1828L51.5731 15.4405C51.7833 15.1634 51.9205 14.839 51.9722 14.4966L51.9903 14.3424L52 14.2206L51.971 13.9338V13.9338ZM39.224 13.1429L42.6079 7.09356L45.9893 13.1429H39.224ZM37.1947 16.7273H45.2226L31.8419 33.4725L37.1947 16.7273ZM35.2089 11.3291L30.3217 4.77922H38.8721L35.2089 11.3291ZM19.5546 16.7273H32.4454L25.9982 36.892L19.5546 16.7273ZM20.8329 13.1429L25.9982 6.21777L31.1635 13.1429H20.8329ZM17.1951 10.7867L14.9553 4.77922H21.6758L17.1951 10.7867V10.7867ZM20.1568 33.4737L6.77497 16.7273H14.8041L20.1568 33.4737ZM11.0804 7.13538L13.3214 13.1429H6.59961L11.0804 7.13538V7.13538Z" fill="#FD405E"/>
</svg>
