<svg width="36" height="46" viewBox="0 0 36 46" fill="none" xmlns="http://www.w3.org/2000/svg">
<path d="M18.0004 0C8.30257 0 0.412109 7.89046 0.412109 17.5883V33.8234C0.412109 36.0617 2.23285 37.8825 4.47087 37.8825C6.70924 37.8825 8.52998 36.0617 8.52998 33.8234V20.2942C8.52998 18.0561 6.70924 16.2354 4.47087 16.2354C4.01534 16.2354 3.58437 16.3277 3.1748 16.4667C3.75212 8.78398 10.1738 2.70584 18.0004 2.70584C25.8228 2.70584 32.2428 8.77837 32.8253 16.4558C32.4182 16.3165 31.9848 16.2354 31.53 16.2354C29.2916 16.2354 27.4709 18.0561 27.4709 20.2942V33.8234C27.4709 36.0617 29.2916 37.8825 31.53 37.8825C32.0066 37.8825 32.4576 37.7849 32.8829 37.6333V39.2354C32.8829 39.9819 32.2751 40.5883 31.53 40.5883H21.81C21.2495 39.0168 19.7619 37.8825 18.0004 37.8825C15.7624 37.8825 13.9417 39.7032 13.9417 41.9412C13.9417 44.1793 15.7624 46 18.0004 46C19.7619 46 21.2495 44.8654 21.81 43.2942H31.53C33.768 43.2942 35.5887 41.4734 35.5887 39.2354C35.5887 31.0975 35.5887 25.735 35.5887 17.5883C35.5887 7.89046 27.6983 0 18.0004 0V0Z" fill="#FD405E"/>
</svg>
