<svg width="42" height="50" viewBox="0 0 42 50" fill="none" xmlns="http://www.w3.org/2000/svg">
<path d="M41.9473 12.8932C41.8877 11.5803 41.8877 10.3271 41.8877 9.07389C41.8877 8.05939 41.1119 7.2836 40.0974 7.2836C32.6378 7.2836 26.9686 5.13525 22.2542 0.540181C21.5381 -0.116258 20.4639 -0.116258 19.7478 0.540181C15.0333 5.13525 9.3641 7.2836 1.90457 7.2836C0.890069 7.2836 0.114277 8.05939 0.114277 9.07389C0.114277 10.3271 0.114277 11.5803 0.0546011 12.8932C-0.184104 25.4252 -0.542162 42.6119 20.4042 49.8328L21.001 49.9521L21.5977 49.8328C42.4844 42.6119 42.186 25.4849 41.9473 12.8932ZM19.5687 30.259C19.2107 30.5573 18.7929 30.7364 18.3155 30.7364H18.2559C17.7784 30.7364 17.301 30.4977 17.0027 30.1396L11.4528 23.993L14.1382 21.6059L18.4946 26.4397L28.1621 17.2495L30.6088 19.8753L19.5687 30.259Z" fill="#FD405E"/>
</svg>
