<svg width="25" height="21" viewBox="0 0 25 21" fill="none" xmlns="http://www.w3.org/2000/svg">
<path d="M8.21608 20.4626C10.0588 20.4745 11.8854 20.1111 13.5901 19.3934C15.2948 18.6757 16.8435 17.618 18.1466 16.2818C19.4496 14.9455 20.4809 13.3572 21.1807 11.609C21.8806 9.86086 22.2349 7.98758 22.2234 6.09785V5.43779C23.1785 4.7201 24.0053 3.83817 24.667 2.8311C23.7676 3.23452 22.8158 3.50207 21.8415 3.62541C22.8745 2.99419 23.6496 2.00062 24.0234 0.828536C23.0607 1.42085 22.005 1.83724 20.9034 2.05916C20.1615 1.24848 19.1797 0.711129 18.11 0.530261C17.0404 0.349393 15.9424 0.535087 14.986 1.05861C14.0296 1.58214 13.2681 2.41431 12.8193 3.42636C12.3705 4.43842 12.2595 5.57394 12.5034 6.65723C10.5463 6.55871 8.63141 6.03858 6.88338 5.1307C5.13536 4.22281 3.5934 2.94754 2.3579 1.38791C1.73491 2.49679 1.54608 3.80701 1.82964 5.0533C2.1132 6.29958 2.84797 7.3888 3.88517 8.10041C3.12002 8.07015 2.37258 7.85552 1.70336 7.47391V7.52985C1.69656 8.68869 2.07723 9.81492 2.78194 10.7208C3.48665 11.6267 4.47282 12.2576 5.57608 12.5083C4.86442 12.7046 4.11895 12.7352 3.39426 12.5978C3.71367 13.5861 4.32337 14.4488 5.13977 15.0678C5.95617 15.6867 6.93927 16.0314 7.95427 16.0547C6.21886 17.4873 4.062 18.2759 1.83427 18.2922C1.44367 18.2806 1.05399 18.247 0.666992 18.1915C2.92185 19.6648 5.54249 20.4416 8.21608 20.429" fill="white"/>
</svg>
