<svg width="24" height="25" viewBox="0 0 24 25" fill="none" xmlns="http://www.w3.org/2000/svg">
<path fill-rule="evenodd" clip-rule="evenodd" d="M6.82417 0.866053C8.06233 0.809053 8.45711 0.796387 11.6111 0.796387C14.7651 0.796387 15.1599 0.810109 16.397 0.866053C17.6341 0.921998 18.4786 1.11939 19.2174 1.40544C19.9912 1.69783 20.6931 2.15489 21.2737 2.746C21.8648 3.3255 22.3208 4.02639 22.6121 4.80116C22.8992 5.54005 23.0956 6.3845 23.1526 7.6195C23.2096 8.85978 23.2222 9.25455 23.2222 12.4075C23.2222 15.5615 23.2085 15.9563 23.1526 17.1944C23.0966 18.4294 22.8992 19.2739 22.6121 20.0128C22.3208 20.7877 21.864 21.4897 21.2737 22.0701C20.6931 22.6612 19.9912 23.1172 19.2174 23.4085C18.4786 23.6956 17.6341 23.8919 16.3991 23.9489C15.1599 24.0059 14.7651 24.0186 11.6111 24.0186C8.45711 24.0186 8.06233 24.0049 6.82417 23.9489C5.58917 23.893 4.74472 23.6956 4.00583 23.4085C3.23097 23.1171 2.52892 22.6604 1.94856 22.0701C1.35785 21.4902 0.900721 20.7885 0.609056 20.0138C0.323 19.2749 0.126667 18.4305 0.0696666 17.1955C0.0126666 15.9552 0 15.5604 0 12.4075C0 9.2535 0.0137222 8.85872 0.0696666 7.62161C0.125611 6.3845 0.323 5.54005 0.609056 4.80116C0.901152 4.02647 1.35863 3.32477 1.94961 2.74494C2.52915 2.15436 3.2305 1.69724 4.00478 1.40544C4.74367 1.11939 5.58811 0.923053 6.82311 0.866053H6.82417ZM16.3031 2.95605C15.0786 2.90011 14.7113 2.8885 11.6111 2.8885C8.51094 2.8885 8.14361 2.90011 6.91917 2.95605C5.78655 3.00778 5.17222 3.19672 4.76267 3.35611C4.22117 3.56722 3.83378 3.81739 3.42739 4.22378C3.04216 4.59855 2.74569 5.0548 2.55972 5.55905C2.40033 5.96861 2.21139 6.58294 2.15967 7.71555C2.10372 8.94 2.09211 9.30733 2.09211 12.4075C2.09211 15.5077 2.10372 15.875 2.15967 17.0994C2.21139 18.2321 2.40033 18.8464 2.55972 19.2559C2.7455 19.7594 3.04211 20.2165 3.42739 20.5912C3.80211 20.9765 4.25917 21.2731 4.76267 21.4589C5.17222 21.6183 5.78655 21.8072 6.91917 21.8589C8.14361 21.9149 8.50989 21.9265 11.6111 21.9265C14.7123 21.9265 15.0786 21.9149 16.3031 21.8589C17.4357 21.8072 18.05 21.6183 18.4596 21.4589C19.0011 21.2478 19.3884 20.9976 19.7948 20.5912C20.1801 20.2165 20.4767 19.7594 20.6625 19.2559C20.8219 18.8464 21.0108 18.2321 21.0626 17.0994C21.1185 15.875 21.1301 15.5077 21.1301 12.4075C21.1301 9.30733 21.1185 8.94 21.0626 7.71555C21.0108 6.58294 20.8219 5.96861 20.6625 5.55905C20.4514 5.01755 20.2012 4.63016 19.7948 4.22378C19.42 3.83857 18.9638 3.54211 18.4596 3.35611C18.05 3.19672 17.4357 3.00778 16.3031 2.95605ZM10.1281 15.9869C10.9563 16.3317 11.8786 16.3782 12.7373 16.1185C13.5961 15.8589 14.338 15.3091 14.8365 14.5632C15.3349 13.8173 15.5589 12.9214 15.4703 12.0287C15.3816 11.1359 14.9857 10.3016 14.3503 9.66833C13.9452 9.2635 13.4554 8.95352 12.9161 8.76071C12.3769 8.56789 11.8016 8.49704 11.2316 8.55326C10.6617 8.60947 10.1113 8.79135 9.62013 9.0858C9.12892 9.38025 8.70912 9.77995 8.39093 10.2561C8.07274 10.7323 7.86409 11.2731 7.77999 11.8396C7.69589 12.4061 7.73844 12.9841 7.90457 13.5322C8.0707 14.0803 8.35629 14.5847 8.74076 15.0091C9.12523 15.4336 9.59904 15.7675 10.1281 15.9869ZM7.391 8.18739C7.94519 7.63319 8.60312 7.19358 9.3272 6.89366C10.0513 6.59373 10.8274 6.43936 11.6111 6.43936C12.3949 6.43936 13.1709 6.59373 13.895 6.89366C14.6191 7.19358 15.277 7.63319 15.8312 8.18739C16.3854 8.74158 16.825 9.3995 17.125 10.1236C17.4249 10.8477 17.5792 11.6237 17.5792 12.4075C17.5792 13.1912 17.4249 13.9673 17.125 14.6914C16.825 15.4155 16.3854 16.0734 15.8312 16.6276C14.712 17.7469 13.194 18.3756 11.6111 18.3756C10.0283 18.3756 8.51024 17.7469 7.391 16.6276C6.27176 15.5084 5.64297 13.9903 5.64297 12.4075C5.64297 10.8246 6.27176 9.30663 7.391 8.18739ZM18.9029 7.32816C19.0402 7.19861 19.1502 7.04283 19.2262 6.87003C19.3023 6.69722 19.3429 6.51092 19.3456 6.32215C19.3484 6.13337 19.3132 5.94596 19.2422 5.77102C19.1713 5.59607 19.0659 5.43715 18.9324 5.30365C18.7989 5.17015 18.64 5.0648 18.465 4.99382C18.2901 4.92285 18.1027 4.88769 17.9139 4.89045C17.7251 4.8932 17.5388 4.9338 17.366 5.00984C17.1932 5.08589 17.0374 5.19583 16.9079 5.33316C16.6559 5.60025 16.518 5.95501 16.5233 6.32215C16.5287 6.68928 16.6769 7.03987 16.9366 7.2995C17.1962 7.55913 17.5468 7.70735 17.9139 7.7127C18.281 7.71805 18.6358 7.58011 18.9029 7.32816Z" fill="white"/>
</svg>
