<svg width="24" height="24" viewBox="0 0 24 24" fill="none" xmlns="http://www.w3.org/2000/svg">
<path fill-rule="evenodd" clip-rule="evenodd" d="M9.08652 8.36109H13.2957V10.4578C13.9021 9.25189 15.457 8.16842 17.7928 8.16842C22.2706 8.16842 23.3337 10.5688 23.3337 14.973V23.1296H18.8003V15.976C18.8003 13.4679 18.194 12.0535 16.6504 12.0535C14.5095 12.0535 13.6199 13.5778 13.6199 15.9748V23.1296H9.08652V8.36109ZM1.31299 22.9369H5.84633V8.16842H1.31299V22.9369ZM6.49573 3.35289C6.49589 3.73287 6.42054 4.10909 6.27403 4.45969C6.12753 4.81029 5.9128 5.12827 5.64233 5.39516C5.09425 5.93986 4.35238 6.24476 3.57966 6.24289C2.8083 6.24237 2.06814 5.93825 1.51926 5.39629C1.24977 5.1285 1.03576 4.81016 0.889515 4.45951C0.743267 4.10887 0.667649 3.73281 0.666992 3.35289C0.666992 2.58562 0.972992 1.85122 1.52039 1.30949C2.0688 0.766804 2.80926 0.462552 3.58079 0.462891C4.35373 0.462891 5.09493 0.767758 5.64233 1.30949C6.18859 1.85122 6.49573 2.58562 6.49573 3.35289Z" fill="white"/>
</svg>
