<svg width="211" height="94" viewBox="0 0 211 94" fill="none" xmlns="http://www.w3.org/2000/svg">
<path d="M16.192 65.1029C13.5893 65.1029 11.2213 64.4416 9.088 63.1189C6.99733 61.7962 5.35467 60.0256 4.16 57.8069C3.86133 57.2949 3.712 56.8042 3.712 56.3349C3.712 55.6096 3.98933 55.0336 4.544 54.6069C5.09867 54.1376 5.65333 53.9029 6.208 53.9029C6.67733 53.9029 7.104 54.0309 7.488 54.2869C7.91467 54.5429 8.27733 54.8629 8.576 55.2469C9.42933 56.6976 10.496 57.8496 11.776 58.7029C13.056 59.5562 14.528 59.9829 16.192 59.9829C17.9413 59.9829 19.4773 59.5989 20.8 58.8309C22.1653 58.0629 23.232 57.0176 24 55.6949C24.8107 54.3296 25.216 52.7936 25.216 51.0869V22.2229C25.216 21.4976 25.472 20.9002 25.984 20.4309C26.5387 19.9189 27.2 19.6629 27.968 19.6629C28.736 19.6629 29.3547 19.9189 29.824 20.4309C30.336 20.9002 30.592 21.4976 30.592 22.2229V51.0869C30.592 53.6896 29.952 56.0576 28.672 58.1909C27.4347 60.3242 25.728 62.0096 23.552 63.2469C21.4187 64.4842 18.9653 65.1029 16.192 65.1029ZM54.8755 65.1029C51.7182 65.1029 48.9448 64.6336 46.5555 63.6949C44.1662 62.7562 41.8622 61.2629 39.6435 59.2149C39.3448 58.9162 39.0888 58.5962 38.8755 58.2549C38.7048 57.8709 38.6195 57.4656 38.6195 57.0389C38.6195 56.3562 38.8542 55.7589 39.3235 55.2469C39.8355 54.6922 40.4542 54.4149 41.1795 54.4149C41.7768 54.4149 42.3102 54.6496 42.7795 55.1189C44.4435 56.7402 46.2355 57.9776 48.1555 58.8309C50.1182 59.6842 52.3155 60.1109 54.7475 60.1109C56.6248 60.1109 58.3102 59.8122 59.8035 59.2149C61.3395 58.6176 62.5555 57.7856 63.4515 56.7189C64.3475 55.6522 64.7955 54.4149 64.7955 53.0069C64.7528 51.3002 64.2408 49.8922 63.2595 48.7829C62.3208 47.6736 60.9982 46.7562 59.2915 46.0309C57.6275 45.2629 55.6862 44.6229 53.4675 44.1109C51.5048 43.6416 49.6915 43.0656 48.0275 42.3829C46.4062 41.7002 44.9982 40.8682 43.8035 39.8869C42.6088 38.8629 41.6702 37.6469 40.9875 36.2389C40.3475 34.7882 40.0275 33.1029 40.0275 31.1829C40.0275 28.7509 40.6675 26.6176 41.9475 24.7829C43.2275 22.9482 44.9982 21.5402 47.2595 20.5589C49.5208 19.5349 52.1235 19.0229 55.0675 19.0229C57.6702 19.0229 60.1235 19.4496 62.4275 20.3029C64.7742 21.1562 66.6515 22.3296 68.0595 23.8229C68.9128 24.6336 69.3395 25.4229 69.3395 26.1909C69.3395 26.8309 69.0622 27.4282 68.5075 27.9829C67.9955 28.4949 67.3982 28.7509 66.7155 28.7509C66.2462 28.7509 65.8195 28.5802 65.4355 28.2389C64.7102 27.4282 63.7928 26.7029 62.6835 26.0629C61.5742 25.4229 60.3582 24.9109 59.0355 24.5269C57.7128 24.1429 56.3902 23.9509 55.0675 23.9509C53.1048 23.9509 51.3768 24.2496 49.8835 24.8469C48.3902 25.4016 47.2168 26.2122 46.3635 27.2789C45.5528 28.3029 45.1475 29.5402 45.1475 30.9909C45.1475 32.6122 45.6168 33.9562 46.5555 35.0229C47.4942 36.0469 48.7528 36.9002 50.3315 37.5829C51.9102 38.2229 53.6595 38.7989 55.5795 39.3109C57.6702 39.8229 59.5902 40.4202 61.3395 41.1029C63.1315 41.7429 64.6675 42.5536 65.9475 43.5349C67.2275 44.5162 68.2088 45.7749 68.8915 47.3109C69.6168 48.8042 69.9795 50.6602 69.9795 52.8789C69.9795 55.2256 69.3182 57.3162 67.9955 59.1509C66.6728 60.9856 64.8595 62.4362 62.5555 63.5029C60.2942 64.5269 57.7342 65.0602 54.8755 65.1029ZM81.2575 19.6629C81.9828 19.6629 82.6015 19.9189 83.1135 20.4309C83.6255 20.9002 83.8815 21.5189 83.8815 22.2869V61.8389C83.8815 62.5642 83.6042 63.1829 83.0495 63.6949C82.5375 64.2069 81.9188 64.4629 81.1935 64.4629C80.3828 64.4629 79.7428 64.2069 79.2735 63.6949C78.8042 63.1829 78.5695 62.5642 78.5695 61.8389V22.2869C78.5695 21.5189 78.8255 20.9002 79.3375 20.4309C79.8495 19.9189 80.4895 19.6629 81.2575 19.6629ZM110.762 19.6629C111.53 19.6629 112.148 19.9189 112.618 20.4309C113.13 20.9002 113.386 21.5189 113.386 22.2869V61.8389C113.386 62.5642 113.13 63.1829 112.618 63.6949C112.106 64.2069 111.466 64.4629 110.698 64.4629C109.972 64.4629 109.354 64.2069 108.842 63.6949C108.33 63.1829 108.074 62.5642 108.074 61.8389V22.2869C108.074 21.5189 108.33 20.9002 108.842 20.4309C109.396 19.9189 110.036 19.6629 110.762 19.6629ZM81.0015 39.1829H110.826L110.762 44.1749H80.8095L81.0015 39.1829Z" fill="url(#paint0_linear_503_757)"/>
<g clip-path="url(#clip0_503_757)">
<path d="M148.866 15.2142L150.397 17.1808L154.344 11.6086C154.344 11.6086 154.425 11.4447 154.425 11.3628H150.316L148.866 15.2142Z" fill="#59CAFC"/>
<path d="M141.295 11.3628H137.187C137.187 11.5267 137.428 11.8545 137.428 11.8545L141.214 17.2628L142.745 15.2961L141.295 11.3628Z" fill="#0096D1"/>
<path d="M143.55 8.413L141.375 5.62689C141.294 5.54494 141.214 5.54494 141.133 5.62689L137.347 11.0352C137.266 11.1172 137.347 11.363 137.427 11.363H141.294L143.55 8.413Z" fill="#00B1FF"/>
<path d="M150.236 11.3629H154.103C154.264 11.3629 154.264 11.199 154.183 11.0351L150.317 5.46289L147.98 8.41289L150.236 11.3629Z" fill="#76DFFF"/>
<path d="M145.806 11.3628L148.867 15.2142L150.237 11.3628H145.806ZM141.295 11.3628L142.745 15.2142L145.806 11.3628H141.295Z" fill="#00B1FF"/>
<path d="M143.55 8.41309L141.295 11.3631H145.806L143.55 8.41309Z" fill="#27C7FF"/>
<path d="M148.061 8.41309L145.806 11.3631H150.236L148.061 8.41309Z" fill="#B0E9FF"/>
<path d="M150.317 5.46289H145.806L148.062 8.41289L150.317 5.46289ZM145.806 5.46289H141.537C141.456 5.46289 141.295 5.46289 141.295 5.54484L143.55 8.41289L145.806 5.46289Z" fill="#59CAFC"/>
<path d="M145.805 11.3629L148.061 8.41289L145.805 5.46289L143.55 8.41289L145.805 11.3629Z" fill="#76DFFF"/>
<path d="M148.867 15.2144L148.142 17.181H150.317L148.867 15.2144Z" fill="#00B1FF"/>
<path d="M142.744 15.2144L141.214 17.181H143.389L142.744 15.2144Z" fill="#0074A8"/>
<path d="M142.744 15.2142L143.389 17.1808H148.141L148.866 15.2142L145.805 11.3628L142.744 15.2142Z" fill="#0096D1"/>
<path d="M148.464 16.7713L150.317 13.8213C150.478 13.5755 150.398 13.2477 150.156 13.0838C149.914 12.9199 149.592 13.0019 149.431 13.2477L147.659 16.0338H144.034L142.262 13.2477C142.1 13.0019 141.778 12.9199 141.537 13.0838C141.295 13.2477 141.214 13.5755 141.375 13.8213L143.228 16.7713C131.628 18.3282 122.687 28.3255 122.687 40.3713C122.687 53.4005 133.159 64.0532 145.967 64.0532C158.775 64.0532 169.248 53.4005 169.248 40.3713C169.248 28.1616 160.145 18.0824 148.464 16.7713ZM145.967 60.7755C134.931 60.7755 125.909 51.5977 125.909 40.3713C125.909 29.1449 134.931 19.9671 145.967 19.9671C157.003 19.9671 166.025 29.1449 166.025 40.3713C166.025 51.5977 157.084 60.7755 145.967 60.7755Z" fill="url(#paint1_linear_503_757)"/>
<path d="M157.97 11.445C159.5 11.8547 160.708 13.0838 161.111 14.6408C161.111 14.8047 161.353 14.8047 161.353 14.6408C161.756 13.0838 162.964 11.8547 164.495 11.445C164.656 11.445 164.656 11.1991 164.495 11.1991C162.964 10.7894 161.756 9.56023 161.353 8.00329C161.353 7.8394 161.111 7.8394 161.111 8.00329C160.628 9.56023 159.5 10.7894 157.97 11.1991C157.808 11.1991 157.808 11.445 157.97 11.445ZM123.492 15.2963C126.15 15.9519 128.325 18.1644 128.97 20.8686C129.05 21.1144 129.372 21.1144 129.453 20.8686C130.097 18.1644 132.272 15.9519 134.931 15.2963C135.172 15.2144 135.172 14.8866 134.931 14.8047C132.272 14.1491 130.097 11.9366 129.453 9.23245C129.372 8.98662 129.05 8.98662 128.97 9.23245C128.325 11.9366 126.15 14.1491 123.492 14.8047C123.25 14.8866 123.25 15.2963 123.492 15.2963Z" fill="#B0E9FF"/>
</g>
<path d="M195.168 19.6629C197.515 19.6629 199.627 20.2389 201.504 21.3909C203.381 22.5429 204.853 24.1216 205.92 26.1269C207.029 28.1322 207.584 30.4149 207.584 32.9749C207.584 35.4922 207.029 37.7749 205.92 39.8229C204.853 41.8709 203.381 43.4922 201.504 44.6869C199.627 45.8816 197.515 46.4789 195.168 46.4789H182.176L182.624 45.7109V61.8389C182.624 62.5642 182.389 63.1829 181.92 63.6949C181.451 64.2069 180.853 64.4629 180.128 64.4629C179.36 64.4629 178.741 64.2069 178.272 63.6949C177.845 63.1829 177.632 62.5642 177.632 61.8389V22.2229C177.632 21.4976 177.867 20.9002 178.336 20.4309C178.848 19.9189 179.467 19.6629 180.192 19.6629H195.168ZM195.168 41.5509C196.576 41.5509 197.813 41.1669 198.88 40.3989C199.947 39.6309 200.8 38.5856 201.44 37.2629C202.08 35.9402 202.4 34.5109 202.4 32.9749C202.4 31.3536 202.08 29.9242 201.44 28.6869C200.8 27.4496 199.947 26.4682 198.88 25.7429C197.813 24.9749 196.576 24.5909 195.168 24.5909H182.176L182.624 23.8869V42.1909L182.176 41.5509H195.168Z" fill="url(#paint2_linear_503_757)"/>
<path d="M24.24 74.4629C24.9733 74.4629 25.6333 74.6429 26.22 75.0029C26.8067 75.3629 27.2667 75.8562 27.6 76.4829C27.9467 77.1096 28.12 77.8229 28.12 78.6229C28.12 79.4096 27.9467 80.1229 27.6 80.7629C27.2667 81.4029 26.8067 81.9096 26.22 82.2829C25.6333 82.6562 24.9733 82.8429 24.24 82.8429H20.18L20.32 82.6029V87.6429C20.32 87.8696 20.2467 88.0629 20.1 88.2229C19.9533 88.3829 19.7667 88.4629 19.54 88.4629C19.3 88.4629 19.1067 88.3829 18.96 88.2229C18.8267 88.0629 18.76 87.8696 18.76 87.6429V75.2629C18.76 75.0362 18.8333 74.8496 18.98 74.7029C19.14 74.5429 19.3333 74.4629 19.56 74.4629H24.24ZM24.24 81.3029C24.68 81.3029 25.0667 81.1829 25.4 80.9429C25.7333 80.7029 26 80.3762 26.2 79.9629C26.4 79.5496 26.5 79.1029 26.5 78.6229C26.5 78.1162 26.4 77.6696 26.2 77.2829C26 76.8962 25.7333 76.5896 25.4 76.3629C25.0667 76.1229 24.68 76.0029 24.24 76.0029H20.18L20.32 75.7829V81.5029L20.18 81.3029H24.24ZM31.2527 88.4629C31.026 88.4629 30.8327 88.3829 30.6727 88.2229C30.526 88.0629 30.4527 87.8696 30.4527 87.6429V78.9229C30.4527 78.6962 30.526 78.5096 30.6727 78.3629C30.8327 78.2029 31.026 78.1229 31.2527 78.1229C31.4927 78.1229 31.686 78.2029 31.8327 78.3629C31.9793 78.5096 32.0527 78.6962 32.0527 78.9229V81.5629L31.8127 81.1429C31.8927 80.7296 32.0327 80.3296 32.2327 79.9429C32.446 79.5429 32.7127 79.1896 33.0327 78.8829C33.3527 78.5629 33.7193 78.3162 34.1327 78.1429C34.546 77.9562 34.9993 77.8629 35.4927 77.8629C35.786 77.8629 36.0527 77.9362 36.2927 78.0829C36.546 78.2162 36.6727 78.4096 36.6727 78.6629C36.6727 78.9429 36.5993 79.1496 36.4527 79.2829C36.306 79.4162 36.1393 79.4829 35.9527 79.4829C35.7793 79.4829 35.6127 79.4496 35.4527 79.3829C35.2927 79.3029 35.0927 79.2629 34.8527 79.2629C34.5193 79.2629 34.186 79.3562 33.8527 79.5429C33.5327 79.7162 33.2327 79.9696 32.9527 80.3029C32.686 80.6362 32.466 81.0162 32.2927 81.4429C32.1327 81.8562 32.0527 82.3029 32.0527 82.7829V87.6429C32.0527 87.8696 31.9727 88.0629 31.8127 88.2229C31.666 88.3829 31.4793 88.4629 31.2527 88.4629ZM42.8108 88.6629C41.7441 88.6629 40.8108 88.4362 40.0108 87.9829C39.2108 87.5296 38.5841 86.9096 38.1308 86.1229C37.6908 85.3229 37.4708 84.4029 37.4708 83.3629C37.4708 82.2029 37.6974 81.2162 38.1508 80.4029C38.6174 79.5762 39.2174 78.9496 39.9508 78.5229C40.6974 78.0829 41.4841 77.8629 42.3108 77.8629C42.9241 77.8629 43.5174 77.9762 44.0908 78.2029C44.6641 78.4296 45.1708 78.7629 45.6108 79.2029C46.0508 79.6296 46.4041 80.1496 46.6708 80.7629C46.9374 81.3629 47.0774 82.0362 47.0908 82.7829C47.0908 82.9962 47.0108 83.1762 46.8508 83.3229C46.6908 83.4696 46.5041 83.5429 46.2908 83.5429H38.3908L38.0308 82.1629H45.7308L45.4108 82.4429V82.0029C45.3574 81.4562 45.1708 80.9896 44.8508 80.6029C44.5441 80.2029 44.1641 79.8962 43.7108 79.6829C43.2708 79.4696 42.8041 79.3629 42.3108 79.3629C41.9108 79.3629 41.5108 79.4362 41.1108 79.5829C40.7241 79.7162 40.3708 79.9429 40.0508 80.2629C39.7441 80.5696 39.4908 80.9696 39.2908 81.4629C39.1041 81.9562 39.0108 82.5496 39.0108 83.2429C39.0108 84.0162 39.1641 84.6962 39.4708 85.2829C39.7908 85.8696 40.2308 86.3362 40.7908 86.6829C41.3508 87.0162 42.0041 87.1829 42.7508 87.1829C43.2174 87.1829 43.6241 87.1229 43.9708 87.0029C44.3174 86.8829 44.6174 86.7362 44.8708 86.5629C45.1241 86.3762 45.3374 86.1896 45.5108 86.0029C45.6841 85.8829 45.8508 85.8229 46.0108 85.8229C46.2108 85.8229 46.3708 85.8896 46.4908 86.0229C46.6241 86.1562 46.6908 86.3162 46.6908 86.5029C46.6908 86.7296 46.5841 86.9296 46.3708 87.1029C45.9974 87.5162 45.4908 87.8829 44.8508 88.2029C44.2108 88.5096 43.5308 88.6629 42.8108 88.6629ZM54.4356 77.9629C55.3423 77.9629 56.0756 78.1962 56.6356 78.6629C57.209 79.1162 57.589 79.7629 57.7756 80.6029H57.4756L57.6156 80.2429C57.7756 79.8696 58.049 79.5096 58.4356 79.1629C58.8223 78.8162 59.269 78.5296 59.7756 78.3029C60.2823 78.0762 60.809 77.9629 61.3556 77.9629C62.2356 77.9629 62.929 78.1562 63.4356 78.5429C63.9423 78.9162 64.3023 79.4229 64.5156 80.0629C64.7423 80.6896 64.8556 81.3962 64.8556 82.1829V87.6429C64.8556 87.8696 64.7756 88.0629 64.6156 88.2229C64.469 88.3829 64.2823 88.4629 64.0556 88.4629C63.8156 88.4629 63.6223 88.3829 63.4756 88.2229C63.329 88.0629 63.2556 87.8696 63.2556 87.6429V82.2229C63.2556 81.7029 63.1756 81.2362 63.0156 80.8229C62.869 80.3962 62.6223 80.0629 62.2756 79.8229C61.9423 79.5696 61.4823 79.4429 60.8956 79.4429C60.349 79.4429 59.849 79.5696 59.3956 79.8229C58.9423 80.0629 58.5823 80.3962 58.3156 80.8229C58.049 81.2362 57.9156 81.7029 57.9156 82.2229V87.6429C57.9156 87.8696 57.8423 88.0629 57.6956 88.2229C57.549 88.3829 57.3556 88.4629 57.1156 88.4629C56.889 88.4629 56.6956 88.3829 56.5356 88.2229C56.389 88.0629 56.3156 87.8696 56.3156 87.6429V82.1629C56.3156 81.6562 56.2423 81.2029 56.0956 80.8029C55.9623 80.3896 55.729 80.0629 55.3956 79.8229C55.0623 79.5696 54.6023 79.4429 54.0156 79.4429C53.4823 79.4429 52.9956 79.5696 52.5556 79.8229C52.1156 80.0629 51.7623 80.3896 51.4956 80.8029C51.229 81.2029 51.0956 81.6562 51.0956 82.1629V87.6429C51.0956 87.8696 51.0156 88.0629 50.8556 88.2229C50.709 88.3829 50.5223 88.4629 50.2956 88.4629C50.069 88.4629 49.8756 88.3829 49.7156 88.2229C49.569 88.0629 49.4956 87.8696 49.4956 87.6429V78.9229C49.4956 78.6962 49.569 78.5096 49.7156 78.3629C49.8756 78.2029 50.069 78.1229 50.2956 78.1229C50.5356 78.1229 50.729 78.2029 50.8756 78.3629C51.0223 78.5096 51.0956 78.6962 51.0956 78.9229V80.4429L50.6556 80.9229C50.709 80.5762 50.8423 80.2296 51.0556 79.8829C51.2823 79.5362 51.569 79.2162 51.9156 78.9229C52.2623 78.6296 52.649 78.3962 53.0756 78.2229C53.5023 78.0496 53.9556 77.9629 54.4356 77.9629ZM69.3559 87.6429C69.3559 87.8696 69.2759 88.0629 69.1159 88.2229C68.9693 88.3829 68.7826 88.4629 68.5559 88.4629C68.3159 88.4629 68.1226 88.3829 67.9759 88.2229C67.8293 88.0629 67.7559 87.8696 67.7559 87.6429V78.7629C67.7559 78.5362 67.8293 78.3496 67.9759 78.2029C68.1359 78.0429 68.3293 77.9629 68.5559 77.9629C68.7826 77.9629 68.9693 78.0429 69.1159 78.2029C69.2759 78.3496 69.3559 78.5362 69.3559 78.7629V87.6429ZM68.5559 76.6229C68.2226 76.6229 67.9759 76.5562 67.8159 76.4229C67.6559 76.2896 67.5759 76.0829 67.5759 75.8029V75.5229C67.5759 75.2429 67.6626 75.0362 67.8359 74.9029C68.0093 74.7696 68.2559 74.7029 68.5759 74.7029C68.8959 74.7029 69.1359 74.7696 69.2959 74.9029C69.4559 75.0362 69.5359 75.2429 69.5359 75.5229V75.8029C69.5359 76.0829 69.4493 76.2896 69.2759 76.4229C69.1159 76.5562 68.8759 76.6229 68.5559 76.6229ZM79.97 78.1229C80.21 78.1229 80.4033 78.2029 80.55 78.3629C80.6967 78.5096 80.77 78.6962 80.77 78.9229V84.3829C80.77 85.7296 80.39 86.7762 79.63 87.5229C78.8833 88.2562 77.8367 88.6229 76.49 88.6229C75.1567 88.6229 74.11 88.2562 73.35 87.5229C72.6033 86.7762 72.23 85.7296 72.23 84.3829V78.9229C72.23 78.6962 72.3033 78.5096 72.45 78.3629C72.61 78.2029 72.8033 78.1229 73.03 78.1229C73.27 78.1229 73.4633 78.2029 73.61 78.3629C73.7567 78.5096 73.83 78.6962 73.83 78.9229V84.3829C73.83 85.2896 74.0633 85.9762 74.53 86.4429C74.9967 86.9096 75.65 87.1429 76.49 87.1429C77.3567 87.1429 78.0167 86.9096 78.47 86.4429C78.9367 85.9762 79.17 85.2896 79.17 84.3829V78.9229C79.17 78.6962 79.2433 78.5096 79.39 78.3629C79.55 78.2029 79.7433 78.1229 79.97 78.1229ZM88.6739 77.9629C89.5806 77.9629 90.3139 78.1962 90.8739 78.6629C91.4472 79.1162 91.8272 79.7629 92.0139 80.6029H91.7139L91.8539 80.2429C92.0139 79.8696 92.2872 79.5096 92.6739 79.1629C93.0606 78.8162 93.5072 78.5296 94.0139 78.3029C94.5206 78.0762 95.0472 77.9629 95.5939 77.9629C96.4739 77.9629 97.1672 78.1562 97.6739 78.5429C98.1806 78.9162 98.5406 79.4229 98.7539 80.0629C98.9806 80.6896 99.0939 81.3962 99.0939 82.1829V87.6429C99.0939 87.8696 99.0139 88.0629 98.8539 88.2229C98.7072 88.3829 98.5206 88.4629 98.2939 88.4629C98.0539 88.4629 97.8606 88.3829 97.7139 88.2229C97.5672 88.0629 97.4939 87.8696 97.4939 87.6429V82.2229C97.4939 81.7029 97.4139 81.2362 97.2539 80.8229C97.1072 80.3962 96.8606 80.0629 96.5139 79.8229C96.1806 79.5696 95.7206 79.4429 95.1339 79.4429C94.5872 79.4429 94.0872 79.5696 93.6339 79.8229C93.1806 80.0629 92.8206 80.3962 92.5539 80.8229C92.2872 81.2362 92.1539 81.7029 92.1539 82.2229V87.6429C92.1539 87.8696 92.0806 88.0629 91.9339 88.2229C91.7872 88.3829 91.5939 88.4629 91.3539 88.4629C91.1272 88.4629 90.9339 88.3829 90.7739 88.2229C90.6272 88.0629 90.5539 87.8696 90.5539 87.6429V82.1629C90.5539 81.6562 90.4806 81.2029 90.3339 80.8029C90.2006 80.3896 89.9672 80.0629 89.6339 79.8229C89.3006 79.5696 88.8406 79.4429 88.2539 79.4429C87.7206 79.4429 87.2339 79.5696 86.7939 79.8229C86.3539 80.0629 86.0006 80.3896 85.7339 80.8029C85.4672 81.2029 85.3339 81.6562 85.3339 82.1629V87.6429C85.3339 87.8696 85.2539 88.0629 85.0939 88.2229C84.9472 88.3829 84.7606 88.4629 84.5339 88.4629C84.3072 88.4629 84.1139 88.3829 83.9539 88.2229C83.8072 88.0629 83.7339 87.8696 83.7339 87.6429V78.9229C83.7339 78.6962 83.8072 78.5096 83.9539 78.3629C84.1139 78.2029 84.3072 78.1229 84.5339 78.1229C84.7739 78.1229 84.9672 78.2029 85.1139 78.3629C85.2606 78.5096 85.3339 78.6962 85.3339 78.9229V80.4429L84.8939 80.9229C84.9472 80.5762 85.0806 80.2296 85.2939 79.8829C85.5206 79.5362 85.8072 79.2162 86.1539 78.9229C86.5006 78.6296 86.8872 78.3962 87.3139 78.2229C87.7406 78.0496 88.1939 77.9629 88.6739 77.9629ZM111.142 88.6629C110.329 88.6629 109.589 88.4562 108.922 88.0429C108.269 87.6296 107.755 87.0762 107.382 86.3829C107.289 86.2229 107.242 86.0696 107.242 85.9229C107.242 85.6962 107.329 85.5162 107.502 85.3829C107.675 85.2362 107.849 85.1629 108.022 85.1629C108.169 85.1629 108.302 85.2029 108.422 85.2829C108.555 85.3629 108.669 85.4629 108.762 85.5829C109.029 86.0362 109.362 86.3962 109.762 86.6629C110.162 86.9296 110.622 87.0629 111.142 87.0629C111.689 87.0629 112.169 86.9429 112.582 86.7029C113.009 86.4629 113.342 86.1362 113.582 85.7229C113.835 85.2962 113.962 84.8162 113.962 84.2829V75.2629C113.962 75.0362 114.042 74.8496 114.202 74.7029C114.375 74.5429 114.582 74.4629 114.822 74.4629C115.062 74.4629 115.255 74.5429 115.402 74.7029C115.562 74.8496 115.642 75.0362 115.642 75.2629V84.2829C115.642 85.0962 115.442 85.8362 115.042 86.5029C114.655 87.1696 114.122 87.6962 113.442 88.0829C112.775 88.4696 112.009 88.6629 111.142 88.6629ZM123.651 88.6629C122.584 88.6629 121.651 88.4362 120.851 87.9829C120.051 87.5296 119.424 86.9096 118.971 86.1229C118.531 85.3229 118.311 84.4029 118.311 83.3629C118.311 82.2029 118.537 81.2162 118.991 80.4029C119.457 79.5762 120.057 78.9496 120.791 78.5229C121.537 78.0829 122.324 77.8629 123.151 77.8629C123.764 77.8629 124.357 77.9762 124.931 78.2029C125.504 78.4296 126.011 78.7629 126.451 79.2029C126.891 79.6296 127.244 80.1496 127.511 80.7629C127.777 81.3629 127.917 82.0362 127.931 82.7829C127.931 82.9962 127.851 83.1762 127.691 83.3229C127.531 83.4696 127.344 83.5429 127.131 83.5429H119.231L118.871 82.1629H126.571L126.251 82.4429V82.0029C126.197 81.4562 126.011 80.9896 125.691 80.6029C125.384 80.2029 125.004 79.8962 124.551 79.6829C124.111 79.4696 123.644 79.3629 123.151 79.3629C122.751 79.3629 122.351 79.4362 121.951 79.5829C121.564 79.7162 121.211 79.9429 120.891 80.2629C120.584 80.5696 120.331 80.9696 120.131 81.4629C119.944 81.9562 119.851 82.5496 119.851 83.2429C119.851 84.0162 120.004 84.6962 120.311 85.2829C120.631 85.8696 121.071 86.3362 121.631 86.6829C122.191 87.0162 122.844 87.1829 123.591 87.1829C124.057 87.1829 124.464 87.1229 124.811 87.0029C125.157 86.8829 125.457 86.7362 125.711 86.5629C125.964 86.3762 126.177 86.1896 126.351 86.0029C126.524 85.8829 126.691 85.8229 126.851 85.8229C127.051 85.8229 127.211 85.8896 127.331 86.0229C127.464 86.1562 127.531 86.3162 127.531 86.5029C127.531 86.7296 127.424 86.9296 127.211 87.1029C126.837 87.5162 126.331 87.8829 125.691 88.2029C125.051 88.5096 124.371 88.6629 123.651 88.6629ZM142.535 77.9429C142.749 77.9429 142.929 78.0162 143.075 78.1629C143.235 78.3096 143.315 78.5029 143.315 78.7429C143.315 78.7962 143.309 78.8562 143.295 78.9229C143.295 78.9762 143.282 79.0296 143.255 79.0829L140.175 87.9429C140.109 88.1162 139.995 88.2496 139.835 88.3429C139.689 88.4362 139.529 88.4762 139.355 88.4629C139.049 88.4496 138.815 88.2762 138.655 87.9429L136.135 81.6229L136.535 81.6829L134.255 87.9429C134.109 88.2762 133.875 88.4496 133.555 88.4629C133.382 88.4762 133.215 88.4362 133.055 88.3429C132.895 88.2496 132.789 88.1162 132.735 87.9429L129.595 79.0829C129.555 78.9629 129.535 78.8496 129.535 78.7429C129.535 78.5296 129.609 78.3429 129.755 78.1829C129.902 78.0229 130.102 77.9429 130.355 77.9429C130.515 77.9429 130.662 77.9829 130.795 78.0629C130.929 78.1429 131.022 78.2696 131.075 78.4429L133.775 86.3229L133.355 86.3029L135.695 80.3029C135.829 79.9696 136.075 79.8029 136.435 79.8029C136.622 79.8029 136.769 79.8496 136.875 79.9429C136.995 80.0229 137.082 80.1429 137.135 80.3029L139.575 86.3029L139.075 86.3429L141.775 78.4429C141.895 78.1096 142.149 77.9429 142.535 77.9429ZM150.252 88.6629C149.186 88.6629 148.252 88.4362 147.452 87.9829C146.652 87.5296 146.026 86.9096 145.572 86.1229C145.132 85.3229 144.912 84.4029 144.912 83.3629C144.912 82.2029 145.139 81.2162 145.592 80.4029C146.059 79.5762 146.659 78.9496 147.392 78.5229C148.139 78.0829 148.926 77.8629 149.752 77.8629C150.366 77.8629 150.959 77.9762 151.532 78.2029C152.106 78.4296 152.612 78.7629 153.052 79.2029C153.492 79.6296 153.846 80.1496 154.112 80.7629C154.379 81.3629 154.519 82.0362 154.532 82.7829C154.532 82.9962 154.452 83.1762 154.292 83.3229C154.132 83.4696 153.946 83.5429 153.732 83.5429H145.832L145.472 82.1629H153.172L152.852 82.4429V82.0029C152.799 81.4562 152.612 80.9896 152.292 80.6029C151.986 80.2029 151.606 79.8962 151.152 79.6829C150.712 79.4696 150.246 79.3629 149.752 79.3629C149.352 79.3629 148.952 79.4362 148.552 79.5829C148.166 79.7162 147.812 79.9429 147.492 80.2629C147.186 80.5696 146.932 80.9696 146.732 81.4629C146.546 81.9562 146.452 82.5496 146.452 83.2429C146.452 84.0162 146.606 84.6962 146.912 85.2829C147.232 85.8696 147.672 86.3362 148.232 86.6829C148.792 87.0162 149.446 87.1829 150.192 87.1829C150.659 87.1829 151.066 87.1229 151.412 87.0029C151.759 86.8829 152.059 86.7362 152.312 86.5629C152.566 86.3762 152.779 86.1896 152.952 86.0029C153.126 85.8829 153.292 85.8229 153.452 85.8229C153.652 85.8229 153.812 85.8896 153.932 86.0229C154.066 86.1562 154.132 86.3162 154.132 86.5029C154.132 86.7296 154.026 86.9296 153.812 87.1029C153.439 87.5162 152.932 87.8829 152.292 88.2029C151.652 88.5096 150.972 88.6629 150.252 88.6629ZM158.697 87.6429C158.697 87.8696 158.617 88.0629 158.457 88.2229C158.297 88.3829 158.104 88.4629 157.877 88.4629C157.65 88.4629 157.464 88.3829 157.317 88.2229C157.17 88.0629 157.097 87.8696 157.097 87.6429V74.4629C157.097 74.2362 157.17 74.0496 157.317 73.9029C157.477 73.7429 157.67 73.6629 157.897 73.6629C158.137 73.6629 158.33 73.7429 158.477 73.9029C158.624 74.0496 158.697 74.2362 158.697 74.4629V87.6429ZM162.6 88.4629C162.374 88.4629 162.18 88.3829 162.02 88.2229C161.874 88.0629 161.8 87.8696 161.8 87.6429V78.9229C161.8 78.6962 161.874 78.5096 162.02 78.3629C162.18 78.2029 162.374 78.1229 162.6 78.1229C162.84 78.1229 163.034 78.2029 163.18 78.3629C163.327 78.5096 163.4 78.6962 163.4 78.9229V81.5629L163.16 81.1429C163.24 80.7296 163.38 80.3296 163.58 79.9429C163.794 79.5429 164.06 79.1896 164.38 78.8829C164.7 78.5629 165.067 78.3162 165.48 78.1429C165.894 77.9562 166.347 77.8629 166.84 77.8629C167.134 77.8629 167.4 77.9362 167.64 78.0829C167.894 78.2162 168.02 78.4096 168.02 78.6629C168.02 78.9429 167.947 79.1496 167.8 79.2829C167.654 79.4162 167.487 79.4829 167.3 79.4829C167.127 79.4829 166.96 79.4496 166.8 79.3829C166.64 79.3029 166.44 79.2629 166.2 79.2629C165.867 79.2629 165.534 79.3562 165.2 79.5429C164.88 79.7162 164.58 79.9696 164.3 80.3029C164.034 80.6362 163.814 81.0162 163.64 81.4429C163.48 81.8562 163.4 82.3029 163.4 82.7829V87.6429C163.4 87.8696 163.32 88.0629 163.16 88.2229C163.014 88.3829 162.827 88.4629 162.6 88.4629ZM171.368 87.6429C171.368 87.8696 171.288 88.0629 171.128 88.2229C170.981 88.3829 170.794 88.4629 170.568 88.4629C170.328 88.4629 170.134 88.3829 169.988 88.2229C169.841 88.0629 169.768 87.8696 169.768 87.6429V78.7629C169.768 78.5362 169.841 78.3496 169.988 78.2029C170.148 78.0429 170.341 77.9629 170.568 77.9629C170.794 77.9629 170.981 78.0429 171.128 78.2029C171.288 78.3496 171.368 78.5362 171.368 78.7629V87.6429ZM170.568 76.6229C170.234 76.6229 169.988 76.5562 169.828 76.4229C169.668 76.2896 169.588 76.0829 169.588 75.8029V75.5229C169.588 75.2429 169.674 75.0362 169.848 74.9029C170.021 74.7696 170.268 74.7029 170.588 74.7029C170.908 74.7029 171.148 74.7696 171.308 74.9029C171.468 75.0362 171.548 75.2429 171.548 75.5229V75.8029C171.548 76.0829 171.461 76.2896 171.288 76.4229C171.128 76.5562 170.888 76.6229 170.568 76.6229ZM179.022 88.6629C177.955 88.6629 177.022 88.4362 176.222 87.9829C175.422 87.5296 174.795 86.9096 174.342 86.1229C173.902 85.3229 173.682 84.4029 173.682 83.3629C173.682 82.2029 173.908 81.2162 174.362 80.4029C174.828 79.5762 175.428 78.9496 176.162 78.5229C176.908 78.0829 177.695 77.8629 178.522 77.8629C179.135 77.8629 179.728 77.9762 180.302 78.2029C180.875 78.4296 181.382 78.7629 181.822 79.2029C182.262 79.6296 182.615 80.1496 182.882 80.7629C183.148 81.3629 183.288 82.0362 183.302 82.7829C183.302 82.9962 183.222 83.1762 183.062 83.3229C182.902 83.4696 182.715 83.5429 182.502 83.5429H174.602L174.242 82.1629H181.942L181.622 82.4429V82.0029C181.568 81.4562 181.382 80.9896 181.062 80.6029C180.755 80.2029 180.375 79.8962 179.922 79.6829C179.482 79.4696 179.015 79.3629 178.522 79.3629C178.122 79.3629 177.722 79.4362 177.322 79.5829C176.935 79.7162 176.582 79.9429 176.262 80.2629C175.955 80.5696 175.702 80.9696 175.502 81.4629C175.315 81.9562 175.222 82.5496 175.222 83.2429C175.222 84.0162 175.375 84.6962 175.682 85.2829C176.002 85.8696 176.442 86.3362 177.002 86.6829C177.562 87.0162 178.215 87.1829 178.962 87.1829C179.428 87.1829 179.835 87.1229 180.182 87.0029C180.528 86.8829 180.828 86.7362 181.082 86.5629C181.335 86.3762 181.548 86.1896 181.722 86.0029C181.895 85.8829 182.062 85.8229 182.222 85.8229C182.422 85.8229 182.582 85.8896 182.702 86.0229C182.835 86.1562 182.902 86.3162 182.902 86.5029C182.902 86.7296 182.795 86.9296 182.582 87.1029C182.208 87.5162 181.702 87.8829 181.062 88.2029C180.422 88.5096 179.742 88.6629 179.022 88.6629ZM185.127 86.8229C185.007 86.6496 184.953 86.4696 184.967 86.2829C184.98 86.0829 185.093 85.9096 185.307 85.7629C185.44 85.6696 185.593 85.6296 185.767 85.6429C185.953 85.6562 186.12 85.7429 186.267 85.9029C186.64 86.3429 187.067 86.6962 187.547 86.9629C188.027 87.2162 188.613 87.3429 189.307 87.3429C189.627 87.3296 189.947 87.2762 190.267 87.1829C190.587 87.0896 190.853 86.9296 191.067 86.7029C191.293 86.4629 191.407 86.1496 191.407 85.7629C191.407 85.3896 191.293 85.0962 191.067 84.8829C190.84 84.6562 190.547 84.4762 190.187 84.3429C189.827 84.1962 189.433 84.0696 189.007 83.9629C188.567 83.8429 188.133 83.7096 187.707 83.5629C187.28 83.4029 186.893 83.2096 186.547 82.9829C186.213 82.7429 185.94 82.4496 185.727 82.1029C185.527 81.7429 185.427 81.3096 185.427 80.8029C185.427 80.2029 185.587 79.6829 185.907 79.2429C186.24 78.8029 186.68 78.4629 187.227 78.2229C187.787 77.9829 188.393 77.8629 189.047 77.8629C189.42 77.8629 189.807 77.9096 190.207 78.0029C190.62 78.0829 191.02 78.2296 191.407 78.4429C191.793 78.6429 192.133 78.9229 192.427 79.2829C192.547 79.4162 192.613 79.5829 192.627 79.7829C192.64 79.9829 192.553 80.1629 192.367 80.3229C192.22 80.4296 192.053 80.4762 191.867 80.4629C191.693 80.4496 191.547 80.3829 191.427 80.2629C191.147 79.9296 190.793 79.6762 190.367 79.5029C189.953 79.3162 189.493 79.2229 188.987 79.2229C188.667 79.2229 188.353 79.2696 188.047 79.3629C187.74 79.4562 187.48 79.6162 187.267 79.8429C187.067 80.0562 186.967 80.3562 186.967 80.7429C186.98 81.1029 187.1 81.3962 187.327 81.6229C187.553 81.8496 187.86 82.0362 188.247 82.1829C188.633 82.3162 189.06 82.4496 189.527 82.5829C189.953 82.6896 190.36 82.8162 190.747 82.9629C191.147 83.0962 191.507 83.2762 191.827 83.5029C192.147 83.7296 192.4 84.0229 192.587 84.3829C192.773 84.7296 192.867 85.1696 192.867 85.7029C192.867 86.3162 192.693 86.8496 192.347 87.3029C192 87.7429 191.54 88.0829 190.967 88.3229C190.407 88.5496 189.8 88.6629 189.147 88.6629C188.413 88.6629 187.687 88.5229 186.967 88.2429C186.26 87.9629 185.647 87.4896 185.127 86.8229Z" fill="url(#paint3_linear_503_757)"/>
<defs>
<linearGradient id="paint0_linear_503_757" x1="0" y1="40.4629" x2="124.95" y2="40.4629" gradientUnits="userSpaceOnUse">
<stop stop-color="white"/>
<stop offset="1" stop-color="white"/>
</linearGradient>
<linearGradient id="paint1_linear_503_757" x1="122.687" y1="38.5259" x2="171.576" y2="38.5259" gradientUnits="userSpaceOnUse">
<stop stop-color="white"/>
<stop offset="1" stop-color="white"/>
</linearGradient>
<linearGradient id="paint2_linear_503_757" x1="172" y1="40.4629" x2="212.95" y2="40.4629" gradientUnits="userSpaceOnUse">
<stop stop-color="white"/>
<stop offset="1" stop-color="white"/>
</linearGradient>
<linearGradient id="paint3_linear_503_757" x1="17" y1="80.9629" x2="202.85" y2="80.9629" gradientUnits="userSpaceOnUse">
<stop stop-color="white"/>
<stop offset="1" stop-color="white"/>
</linearGradient>
<clipPath id="clip0_503_757">
<rect width="58" height="59" fill="white" transform="translate(116 5.46289)"/>
</clipPath>
</defs>
</svg>
