<svg width="48" height="49" viewBox="0 0 48 49" fill="none" xmlns="http://www.w3.org/2000/svg">
<path d="M39.9 42.4629C35.6 42.4629 31.4087 41.5042 27.326 39.5869C23.242 37.6709 19.6253 35.1376 16.476 31.9869C13.3253 28.8376 10.792 25.2209 8.876 21.1369C6.95867 17.0542 6 12.8629 6 8.56289C6 7.96289 6.2 7.46289 6.6 7.06289C7 6.66289 7.5 6.46289 8.1 6.46289H16.2C16.6667 6.46289 17.0833 6.61289 17.45 6.91289C17.8167 7.21289 18.0333 7.59622 18.1 8.06289L19.4 15.0629C19.4667 15.5296 19.4587 15.9542 19.376 16.3369C19.292 16.7209 19.1 17.0629 18.8 17.3629L14 22.2629C15.4 24.6629 17.15 26.9129 19.25 29.0129C21.35 31.1129 23.6667 32.9296 26.2 34.4629L30.9 29.7629C31.2 29.4629 31.592 29.2376 32.076 29.0869C32.5587 28.9376 33.0333 28.8962 33.5 28.9629L40.4 30.3629C40.8667 30.4629 41.25 30.6876 41.55 31.0369C41.85 31.3876 42 31.7962 42 32.2629V40.3629C42 40.9629 41.8 41.4629 41.4 41.8629C41 42.2629 40.5 42.4629 39.9 42.4629Z" fill="white"/>
</svg>
