<svg width="26" height="25" viewBox="0 0 26 25" fill="none" xmlns="http://www.w3.org/2000/svg">
<path d="M18.6184 19.4823H6.84918L3.97388 2.15716C3.94024 1.94968 3.84148 1.76161 3.69469 1.62549C3.5479 1.48937 3.36231 1.41376 3.17003 1.41174H1.30469" stroke="black" stroke-width="2" stroke-linecap="round" stroke-linejoin="round"/>
<path d="M7.90099 23.9999C9.03934 23.9999 9.96214 22.9886 9.96214 21.7411C9.96214 20.4936 9.03934 19.4823 7.90099 19.4823C6.76265 19.4823 5.83984 20.4936 5.83984 21.7411C5.83984 22.9886 6.76265 23.9999 7.90099 23.9999Z" stroke="black" stroke-width="2" stroke-linecap="round" stroke-linejoin="round"/>
<path d="M18.6178 23.9999C19.7561 23.9999 20.6789 22.9886 20.6789 21.7411C20.6789 20.4936 19.7561 19.4823 18.6178 19.4823C17.4794 19.4823 16.5566 20.4936 16.5566 21.7411C16.5566 22.9886 17.4794 23.9999 18.6178 23.9999Z" stroke="black" stroke-width="2" stroke-linecap="round" stroke-linejoin="round"/>
<path d="M6.09785 14.9645H19.0419C19.4273 14.9658 19.8008 14.8182 20.0967 14.5476C20.3926 14.277 20.592 13.9007 20.6599 13.485L21.9172 5.9292H4.60352" stroke="black" stroke-width="2" stroke-linecap="round" stroke-linejoin="round"/>
<path d="M24.554 3.88236C24.554 5.67844 23.2405 7.01472 21.7614 7.01472C20.2822 7.01472 18.9688 5.67844 18.9688 3.88236C18.9688 2.08629 20.2822 0.750012 21.7614 0.750012C23.2405 0.750012 24.554 2.08629 24.554 3.88236Z" fill="#FF5E6F" stroke="white" stroke-width="1.5"/>
</svg>
