<svg width="27" height="25" viewBox="0 0 27 25" fill="none" xmlns="http://www.w3.org/2000/svg">
<path d="M13.9105 23.7096L23.2168 13.6768C25.5032 11.1996 25.8364 7.14937 23.6764 4.56067C23.1347 3.90831 22.4753 3.38186 21.7385 3.0135C21.0017 2.64515 20.203 2.44261 19.3911 2.41826C18.5792 2.39392 17.7713 2.54828 17.0166 2.87192C16.262 3.19555 15.5765 3.68167 15.0019 4.30056L13.2556 6.19564L11.7505 4.56067C9.45259 2.09584 5.69557 1.73664 3.2943 4.06523C2.68917 4.64922 2.20084 5.36008 1.85915 6.15439C1.51745 6.9487 1.32958 7.80978 1.307 8.68501C1.28442 9.56024 1.4276 10.4312 1.72781 11.2448C2.02801 12.0584 2.47894 12.7974 3.05302 13.4167L12.6007 23.7096C12.7749 23.8957 13.0103 24 13.2556 24C13.5008 24 13.7362 23.8957 13.9105 23.7096V23.7096Z" stroke="black" stroke-width="2" stroke-linecap="round" stroke-linejoin="round"/>
<path d="M24.5554 4.03574C24.5554 5.90447 23.1631 7.32146 21.5619 7.32146C19.9607 7.32146 18.5684 5.90447 18.5684 4.03574C18.5684 2.16701 19.9607 0.750013 21.5619 0.750013C23.1631 0.750013 24.5554 2.16701 24.5554 4.03574Z" fill="#FF5E6F" stroke="white" stroke-width="1.5"/>
</svg>
