<svg width="102" height="40" viewBox="0 0 102 40" fill="none" xmlns="http://www.w3.org/2000/svg">
<path d="M8.096 32.32C6.79467 32.32 5.61067 31.9893 4.544 31.328C3.49867 30.6667 2.67733 29.7813 2.08 28.672C1.93067 28.416 1.856 28.1707 1.856 27.936C1.856 27.5733 1.99467 27.2853 2.272 27.072C2.54933 26.8373 2.82667 26.72 3.104 26.72C3.33867 26.72 3.552 26.784 3.744 26.912C3.95733 27.04 4.13867 27.2 4.288 27.392C4.71467 28.1173 5.248 28.6933 5.888 29.12C6.528 29.5467 7.264 29.76 8.096 29.76C8.97067 29.76 9.73867 29.568 10.4 29.184C11.0827 28.8 11.616 28.2773 12 27.616C12.4053 26.9333 12.608 26.1653 12.608 25.312V10.88C12.608 10.5173 12.736 10.2187 12.992 9.984C13.2693 9.728 13.6 9.6 13.984 9.6C14.368 9.6 14.6773 9.728 14.912 9.984C15.168 10.2187 15.296 10.5173 15.296 10.88V25.312C15.296 26.6133 14.976 27.7973 14.336 28.864C13.7173 29.9307 12.864 30.7733 11.776 31.392C10.7093 32.0107 9.48267 32.32 8.096 32.32ZM27.4378 32.32C25.8591 32.32 24.4724 32.0853 23.2778 31.616C22.0831 31.1467 20.9311 30.4 19.8218 29.376C19.6724 29.2267 19.5444 29.0667 19.4378 28.896C19.3524 28.704 19.3098 28.5013 19.3098 28.288C19.3098 27.9467 19.4271 27.648 19.6618 27.392C19.9178 27.1147 20.2271 26.976 20.5898 26.976C20.8884 26.976 21.1551 27.0933 21.3898 27.328C22.2218 28.1387 23.1178 28.7573 24.0778 29.184C25.0591 29.6107 26.1578 29.824 27.3738 29.824C28.3124 29.824 29.1551 29.6747 29.9018 29.376C30.6698 29.0773 31.2778 28.6613 31.7258 28.128C32.1738 27.5947 32.3978 26.976 32.3978 26.272C32.3764 25.4187 32.1204 24.7147 31.6298 24.16C31.1604 23.6053 30.4991 23.1467 29.6458 22.784C28.8138 22.4 27.8431 22.08 26.7338 21.824C25.7524 21.5893 24.8458 21.3013 24.0138 20.96C23.2031 20.6187 22.4991 20.2027 21.9018 19.712C21.3044 19.2 20.8351 18.592 20.4938 17.888C20.1738 17.1627 20.0138 16.32 20.0138 15.36C20.0138 14.144 20.3338 13.0773 20.9738 12.16C21.6138 11.2427 22.4991 10.5387 23.6298 10.048C24.7604 9.536 26.0618 9.28 27.5338 9.28C28.8351 9.28 30.0618 9.49333 31.2138 9.92C32.3871 10.3467 33.3258 10.9333 34.0298 11.68C34.4564 12.0853 34.6698 12.48 34.6698 12.864C34.6698 13.184 34.5311 13.4827 34.2537 13.76C33.9978 14.016 33.6991 14.144 33.3578 14.144C33.1231 14.144 32.9098 14.0587 32.7178 13.888C32.3551 13.4827 31.8964 13.12 31.3418 12.8C30.7871 12.48 30.1791 12.224 29.5178 12.032C28.8564 11.84 28.1951 11.744 27.5338 11.744C26.5524 11.744 25.6884 11.8933 24.9418 12.192C24.1951 12.4693 23.6084 12.8747 23.1818 13.408C22.7764 13.92 22.5738 14.5387 22.5738 15.264C22.5738 16.0747 22.8084 16.7467 23.2778 17.28C23.7471 17.792 24.3764 18.2187 25.1658 18.56C25.9551 18.88 26.8298 19.168 27.7898 19.424C28.8351 19.68 29.7951 19.9787 30.6698 20.32C31.5658 20.64 32.3338 21.0453 32.9738 21.536C33.6138 22.0267 34.1044 22.656 34.4458 23.424C34.8084 24.1707 34.9897 25.0987 34.9897 26.208C34.9897 27.3813 34.6591 28.4267 33.9978 29.344C33.3364 30.2613 32.4298 30.9867 31.2778 31.52C30.1471 32.032 28.8671 32.2987 27.4378 32.32ZM40.6288 9.6C40.9914 9.6 41.3008 9.728 41.5568 9.984C41.8128 10.2187 41.9408 10.528 41.9408 10.912V30.688C41.9408 31.0507 41.8021 31.36 41.5248 31.616C41.2688 31.872 40.9594 32 40.5968 32C40.1914 32 39.8714 31.872 39.6368 31.616C39.4021 31.36 39.2848 31.0507 39.2848 30.688V10.912C39.2848 10.528 39.4128 10.2187 39.6688 9.984C39.9248 9.728 40.2448 9.6 40.6288 9.6ZM55.3808 9.6C55.7648 9.6 56.0741 9.728 56.3088 9.984C56.5648 10.2187 56.6928 10.528 56.6928 10.912V30.688C56.6928 31.0507 56.5648 31.36 56.3088 31.616C56.0528 31.872 55.7328 32 55.3488 32C54.9861 32 54.6768 31.872 54.4208 31.616C54.1648 31.36 54.0368 31.0507 54.0368 30.688V10.912C54.0368 10.528 54.1648 10.2187 54.4208 9.984C54.6981 9.728 55.0181 9.6 55.3808 9.6ZM40.5008 19.36H55.4128L55.3808 21.856H40.4048L40.5008 19.36Z" fill="url(#paint0_linear_481_3048)"/>
<path d="M71.5996 11.1319L72.2329 11.9653L73.8663 9.60417C73.8663 9.60417 73.8996 9.53472 73.8996 9.5H72.1996L71.5996 11.1319Z" fill="#59CAFC"/>
<path d="M68.4676 9.5H66.7676C66.7676 9.56944 66.8676 9.70833 66.8676 9.70833L68.4342 12L69.0676 11.1667L68.4676 9.5Z" fill="#0096D1"/>
<path d="M69.4008 8.25005L68.5008 7.0695C68.4675 7.03478 68.4341 7.03478 68.4008 7.0695L66.8341 9.36117C66.8008 9.39589 66.8341 9.50005 66.8675 9.50005H68.4675L69.4008 8.25005Z" fill="#00B1FF"/>
<path d="M72.1658 9.5H73.7658C73.8324 9.5 73.8324 9.43056 73.7991 9.36111L72.1991 7L71.2324 8.25L72.1658 9.5Z" fill="#76DFFF"/>
<path d="M70.3335 9.5L71.6001 11.1319L72.1668 9.5H70.3335ZM68.4668 9.5L69.0668 11.1319L70.3335 9.5H68.4668Z" fill="#00B1FF"/>
<path d="M69.4001 8.25L68.4668 9.5H70.3335L69.4001 8.25Z" fill="#27C7FF"/>
<path d="M71.2673 8.25L70.334 9.5H72.1673L71.2673 8.25Z" fill="#B0E9FF"/>
<path d="M72.2001 7H70.3335L71.2668 8.25L72.2001 7ZM70.3335 7H68.5668C68.5335 7 68.4668 7 68.4668 7.03472L69.4001 8.25L70.3335 7Z" fill="#59CAFC"/>
<path d="M70.3337 9.5L71.2671 8.25L70.3337 7L69.4004 8.25L70.3337 9.5Z" fill="#76DFFF"/>
<path d="M71.6008 11.132L71.3008 11.9653H72.2008L71.6008 11.132Z" fill="#00B1FF"/>
<path d="M69.0669 11.132L68.4336 11.9653H69.3336L69.0669 11.132Z" fill="#0074A8"/>
<path d="M69.0664 11.1319L69.3331 11.9653H71.2997L71.5997 11.1319L70.3331 9.5L69.0664 11.1319Z" fill="#0096D1"/>
<path d="M71.4342 11.7916L72.2009 10.5416C72.2676 10.4375 72.2342 10.2986 72.1342 10.2291C72.0342 10.1597 71.9009 10.1944 71.8342 10.2986L71.1009 11.4791H69.6009L68.8676 10.2986C68.8009 10.1944 68.6676 10.1597 68.5676 10.2291C68.4676 10.2986 68.4342 10.4375 68.5009 10.5416L69.2676 11.7916C64.4676 12.4513 60.7676 16.6875 60.7676 21.7916C60.7676 27.3125 65.1009 31.8263 70.4009 31.8263C75.7009 31.8263 80.0342 27.3125 80.0342 21.7916C80.0342 16.618 76.2676 12.3472 71.4342 11.7916ZM70.4009 30.4375C65.8342 30.4375 62.1009 26.5486 62.1009 21.7916C62.1009 17.0347 65.8342 13.1458 70.4009 13.1458C74.9676 13.1458 78.7009 17.0347 78.7009 21.7916C78.7009 26.5486 75.0009 30.4375 70.4009 30.4375Z" fill="url(#paint1_linear_481_3048)"/>
<path d="M75.3671 9.53471C76.0004 9.70832 76.5004 10.2292 76.6671 10.8889C76.6671 10.9583 76.7671 10.9583 76.7671 10.8889C76.9337 10.2292 77.4337 9.70832 78.0671 9.53471C78.1337 9.53471 78.1337 9.43054 78.0671 9.43054C77.4337 9.25693 76.9337 8.7361 76.7671 8.07638C76.7671 8.00693 76.6671 8.00693 76.6671 8.07638C76.4671 8.7361 76.0004 9.25693 75.3671 9.43054C75.3004 9.43054 75.3004 9.53471 75.3671 9.53471ZM61.1004 11.1667C62.2004 11.4444 63.1004 12.3819 63.3671 13.5278C63.4004 13.6319 63.5337 13.6319 63.5671 13.5278C63.8337 12.3819 64.7337 11.4444 65.8337 11.1667C65.9337 11.1319 65.9337 10.993 65.8337 10.9583C64.7337 10.6805 63.8337 9.74304 63.5671 8.59721C63.5337 8.49304 63.4004 8.49304 63.3671 8.59721C63.1004 9.74304 62.2004 10.6805 61.1004 10.9583C61.0004 10.993 61.0004 11.1667 61.1004 11.1667Z" fill="#B0E9FF"/>
<path d="M93.584 9.6C94.7573 9.6 95.8133 9.888 96.752 10.464C97.6907 11.04 98.4267 11.8293 98.96 12.832C99.5147 13.8347 99.792 14.976 99.792 16.256C99.792 17.5147 99.5147 18.656 98.96 19.68C98.4267 20.704 97.6907 21.5147 96.752 22.112C95.8133 22.7093 94.7573 23.008 93.584 23.008H87.088L87.312 22.624V30.688C87.312 31.0507 87.1947 31.36 86.96 31.616C86.7253 31.872 86.4267 32 86.064 32C85.68 32 85.3707 31.872 85.136 31.616C84.9227 31.36 84.816 31.0507 84.816 30.688V10.88C84.816 10.5173 84.9333 10.2187 85.168 9.984C85.424 9.728 85.7333 9.6 86.096 9.6H93.584ZM93.584 20.544C94.288 20.544 94.9067 20.352 95.44 19.968C95.9733 19.584 96.4 19.0613 96.72 18.4C97.04 17.7387 97.2 17.024 97.2 16.256C97.2 15.4453 97.04 14.7307 96.72 14.112C96.4 13.4933 95.9733 13.0027 95.44 12.64C94.9067 12.256 94.288 12.064 93.584 12.064H87.088L87.312 11.712V20.864L87.088 20.544H93.584Z" fill="url(#paint2_linear_481_3048)"/>
<defs>
<linearGradient id="paint0_linear_481_3048" x1="0" y1="20" x2="63" y2="20" gradientUnits="userSpaceOnUse">
<stop stop-color="#FD405E"/>
<stop offset="1" stop-color="#FE6433"/>
</linearGradient>
<linearGradient id="paint1_linear_481_3048" x1="60.7676" y1="21.0097" x2="80.9976" y2="21.0097" gradientUnits="userSpaceOnUse">
<stop stop-color="#FD405E"/>
<stop offset="1" stop-color="#FE6433"/>
</linearGradient>
<linearGradient id="paint2_linear_481_3048" x1="82" y1="20" x2="103" y2="20" gradientUnits="userSpaceOnUse">
<stop stop-color="#FD405E"/>
<stop offset="1" stop-color="#FE6433"/>
</linearGradient>
</defs>
</svg>
