<svg width="42" height="27" viewBox="0 0 42 27" fill="none" xmlns="http://www.w3.org/2000/svg">
<path fill-rule="evenodd" clip-rule="evenodd" d="M42 13.5C42 13.1022 41.842 12.7208 41.5607 12.4395C41.2795 12.1582 40.898 12.0002 40.5002 12.0002L5.12617 12.0002L14.5658 2.56353C14.8475 2.28191 15.0057 1.89995 15.0057 1.50168C15.0057 1.10341 14.8475 0.721452 14.5658 0.439832C14.2842 0.158211 13.9023 -1.76064e-07 13.504 -1.83915e-07C13.1057 -1.91766e-07 12.7238 0.158211 12.4421 0.439832L0.44383 12.4381C0.304159 12.5775 0.193348 12.743 0.117739 12.9252C0.04213 13.1074 0.00321092 13.3027 0.00321092 13.5C0.00321092 13.6973 0.04213 13.8926 0.117739 14.0748C0.193348 14.257 0.304159 14.4225 0.44383 14.5619L12.4421 26.5602C12.7238 26.8418 13.1057 27 13.504 27C13.9023 27 14.2842 26.8418 14.5658 26.5602C14.8475 26.2785 15.0057 25.8966 15.0057 25.4983C15.0057 25.1 14.8475 24.7181 14.5658 24.4365L5.12617 14.9998L40.5002 14.9998C40.898 14.9998 41.2795 14.8418 41.5607 14.5605C41.842 14.2792 42 13.8978 42 13.5V13.5Z" fill="white"/>
</svg>
