<svg width="145" height="135" viewBox="0 0 145 135" fill="none" xmlns="http://www.w3.org/2000/svg">
<path d="M42.867 126.084C29.6738 119.487 12.6326 87.0536 5.76113 71.6616C-3.24685 53.521 2.46283 46.0996 3.28741 40.3276C3.94707 35.71 11.808 27.4092 15.656 23.8361C20.0538 18.8887 34.6213 7.67452 57.7094 2.39724C86.5695 -4.19937 117.079 13.9413 132.746 27.9591C145.279 39.1733 145.114 55.1701 143.465 61.7667C140.442 70.2873 130.437 92.7707 114.605 114.539C94.8153 141.75 59.3585 134.329 42.867 126.084Z" fill="#F6F7FA" stroke="#F6F7FA"/>
<circle cx="72.4841" cy="64.4923" r="53.5974" fill="white"/>
<path d="M35.8918 76.0365L57.3307 94.1772C59.6697 96.1563 62.1528 93.3526 63.102 91.7033L70.5232 81.8084C69.6986 82.0833 71.3478 78.8399 84.541 63.6677C101.033 44.7025 102.682 47.1762 110.927 42.2288C112.906 35.6322 107.904 33.983 105.155 33.983C104.056 34.5327 101.033 36.1269 97.7342 38.1059C89.1586 43.3832 76.0204 57.346 70.5232 63.6677L57.3307 80.1593C55.9562 78.785 51.2283 74.3874 43.313 67.7908C34.7374 66.4715 34.7923 72.7382 35.8918 76.0365Z" fill="#FD405E" stroke="#FD405E"/>
</svg>
