<svg width="24" height="28" viewBox="0 0 24 28" fill="none" xmlns="http://www.w3.org/2000/svg">
<path fill-rule="evenodd" clip-rule="evenodd" d="M0.785156 10.0468C0.785156 12.2505 1.72506 15.4646 4.30981 16.1891C4.3999 16.2061 4.52652 16.2378 4.61662 16.2378C5.21319 16.2378 5.55653 14.6915 5.55653 14.2532C5.55653 13.7321 4.12718 12.6218 4.12718 10.451C4.12718 5.94017 7.81376 2.74424 12.5851 2.74424C16.6881 2.74424 19.7233 4.91382 19.7233 8.90234C19.7233 11.8803 18.4401 17.4674 14.2835 17.4674C12.7836 17.4674 11.5003 16.4569 11.5003 15.0105C11.5003 12.8896 13.0916 10.8345 13.0916 8.6491C13.0916 7.31959 12.2759 6.24211 10.7589 6.24211C8.69888 6.24211 7.43269 8.39707 7.43269 10.0955C7.43269 11.0378 7.55931 12.08 8.01222 12.9396C7.18067 16.2706 5.47982 21.2356 5.47982 24.6677C5.47982 25.7269 5.64419 26.7715 5.75254 27.8332L5.91569 28L6.16771 27.9148C9.20414 24.0456 9.09579 23.2883 10.4691 18.2235C11.2118 19.5347 13.1257 20.2421 14.6451 20.2421C21.0419 20.2421 23.9152 14.4346 23.9152 9.20306C23.9176 3.63666 18.7493 0 13.0746 0C6.89334 0 0.785156 3.83511 0.785156 10.0468Z" fill="#2C2724"/>
</svg>
