<svg width="27" height="22" viewBox="0 0 27 22" fill="none" xmlns="http://www.w3.org/2000/svg">
<path fill-rule="evenodd" clip-rule="evenodd" d="M27 2.61102C26.0057 3.05389 24.9378 3.35159 23.8183 3.48445C24.9749 2.79088 25.8404 1.69959 26.2537 0.413908C25.1662 1.0606 23.9764 1.51618 22.7357 1.76096C21.9019 0.86694 20.7968 0.274021 19.5922 0.0743862C18.3875 -0.125249 17.1508 0.0795869 16.0743 0.657046C14.9978 1.23451 14.1418 2.15223 13.6394 3.26755C13.137 4.38287 13.0164 5.63329 13.2962 6.82441C11.094 6.7138 8.93956 6.14024 6.97287 5.14096C5.00617 4.14168 3.27117 2.73903 1.88052 1.02408C1.38707 1.87153 1.12777 2.83542 1.1293 3.8166C1.12876 4.73046 1.35347 5.6303 1.78347 6.43617C2.21347 7.24204 2.83544 7.92898 3.59411 8.43595C2.71453 8.40851 1.85427 8.17061 1.08511 7.74213V7.81225C1.08522 9.09413 1.52775 10.3365 2.33765 11.3287C3.14755 12.3208 4.27495 13.0017 5.52864 13.2558C4.71207 13.4784 3.85553 13.5108 3.02455 13.3506C3.37843 14.4539 4.06769 15.4188 4.99586 16.1101C5.92404 16.8014 7.04466 17.1846 8.2009 17.206C6.23863 18.7483 3.81582 19.5846 1.32201 19.5802C0.88028 19.5816 0.438847 19.557 0 19.5064C2.53299 21.1375 5.48103 22.0032 8.49182 22C18.68 22 24.2529 13.5412 24.2529 6.2044C24.2529 5.96451 24.2467 5.72462 24.2357 5.4872C25.3202 4.70155 26.2563 3.72842 27 2.61348" fill="#2C2724"/>
</svg>
