<svg width="27" height="22" viewBox="0 0 27 22" fill="none" xmlns="http://www.w3.org/2000/svg">
<path d="M26.7849 19.2266C26.7849 20.7363 25.582 21.9575 24.1186 21.9575H2.66632C1.19315 21.9575 0 20.7327 0 19.2266V8.16324C0 7.48631 0.474824 7.22212 1.04096 7.55936L11.7306 13.9366C12.6827 14.5052 14.1047 14.5052 15.0543 13.9366L25.744 7.55936C26.3186 7.21846 26.7849 7.48266 26.7849 8.16202V19.2254V19.2266Z" fill="#2C2724"/>
<path d="M26.7849 2.77339C26.7849 1.26734 25.5918 0.0425415 24.1186 0.0425415H2.66632C1.20289 0.0425415 0 1.26491 0 2.77339V3.33952C0 4.01402 0.468736 4.83948 1.04339 5.18281L12.7435 12.1627C13.0686 12.3575 13.7175 12.3575 14.0426 12.1627L25.7428 5.18281C26.3186 4.83826 26.7849 4.01402 26.7849 3.33952V2.77339Z" fill="#2C2724"/>
</svg>
