<svg width="42" height="27" viewBox="0 0 42 27" fill="none" xmlns="http://www.w3.org/2000/svg">
<path fill-rule="evenodd" clip-rule="evenodd" d="M0 13.5C0 13.1022 0.158013 12.7208 0.439278 12.4395C0.720543 12.1582 1.10202 12.0002 1.49979 12.0002L36.8738 12.0002L27.4342 2.56353C27.1525 2.28191 26.9943 1.89995 26.9943 1.50168C26.9943 1.10341 27.1525 0.721453 27.4342 0.439833C27.7158 0.158211 28.0977 0 28.496 0C28.8943 0 29.2762 0.158211 29.5579 0.439833L41.5562 12.4381C41.6958 12.5775 41.8067 12.743 41.8823 12.9252C41.9579 13.1074 41.9968 13.3027 41.9968 13.5C41.9968 13.6973 41.9579 13.8926 41.8823 14.0748C41.8067 14.257 41.6958 14.4225 41.5562 14.5619L29.5579 26.5602C29.2762 26.8418 28.8943 27 28.496 27C28.0977 27 27.7158 26.8418 27.4342 26.5602C27.1525 26.2785 26.9943 25.8966 26.9943 25.4983C26.9943 25.1 27.1525 24.7181 27.4342 24.4365L36.8738 14.9998L1.49979 14.9998C1.10202 14.9998 0.720543 14.8418 0.439278 14.5605C0.158013 14.2792 0 13.8978 0 13.5Z" fill="white"/>
</svg>
