<svg width="25" height="25" viewBox="0 0 25 25" fill="none" xmlns="http://www.w3.org/2000/svg">
<path d="M22.4278 6.49156C21.6986 6.80614 20.905 7.03254 20.0876 7.12071C20.9363 6.61652 21.5718 5.81999 21.875 4.88055C21.0786 5.3543 20.2062 5.68649 19.2964 5.86241C18.9161 5.45591 18.4563 5.13207 17.9454 4.91107C17.4345 4.69008 16.8836 4.57666 16.327 4.57789C14.0749 4.57789 12.2637 6.40338 12.2637 8.64355C12.2637 8.95812 12.3018 9.2727 12.3638 9.57536C8.99165 9.399 5.98411 7.78799 3.98465 5.32143C3.62033 5.94371 3.42941 6.65225 3.43176 7.37333C3.43176 8.78415 4.14909 10.0282 5.24295 10.7598C4.59832 10.7344 3.96878 10.5572 3.40554 10.2426V10.2927C3.40554 12.2683 4.80207 13.9055 6.66331 14.2821C6.31384 14.3729 5.95434 14.4193 5.59328 14.4203C5.32875 14.4203 5.07852 14.3941 4.8259 14.3583C5.34066 15.9694 6.83966 17.1395 8.62464 17.1776C7.22812 18.2715 5.47888 18.9149 3.57951 18.9149C3.23872 18.9149 2.92415 18.903 2.59766 18.8649C4.39932 20.0207 6.537 20.688 8.83913 20.688C16.3127 20.688 20.4022 14.4966 20.4022 9.12256C20.4022 8.94621 20.4022 8.76985 20.3903 8.5935C21.1815 8.01439 21.875 7.29707 22.4278 6.49156Z" fill="#59CAFC"/>
</svg>
